<svg width="196" height="30" viewBox="0 0 196 30" fill="none" xmlns="http://www.w3.org/2000/svg">
<g clip-path="url(#clip0_4759_3856)">
<path d="M20.3303 19.9409L25.6095 25.2252C22.9821 27.8528 19.3522 29.4779 15.3429 29.4779C7.31933 29.4779 0.813965 22.9723 0.813965 14.9535C0.813965 6.93466 7.31933 0.429688 15.3429 0.429688C19.3522 0.429688 22.9821 2.05481 25.6095 4.68241L20.3303 9.9663C19.0506 8.68665 17.2892 7.8983 15.3429 7.8983C11.4454 7.8983 8.28765 11.0562 8.28765 14.9535C8.28765 18.8508 11.4456 22.0087 15.3429 22.0087C17.2891 22.0087 19.0504 21.2211 20.3303 19.9409Z" fill="#001E37"/>
<path d="M68.1275 4.41695C68.1275 4.41695 71.0424 0.429688 76.2892 0.429688C82.7019 0.429688 87.3657 4.98651 87.3657 12.6761V28.9097H79.4956V13.5306C79.4956 10.1127 77.1637 7.83428 73.9576 7.83428C70.4596 7.83428 68.1277 10.1127 68.1277 14.3849V28.9097H60.2578V0.999046H68.1277V4.41695H68.1275Z" fill="#001E37"/>
<path d="M99.61 28.9107L88.8252 1H96.9867L103.691 19.5124L110.395 1H118.557L107.772 28.9109H99.61V28.9107Z" fill="#001E37"/>
<path d="M126.421 17.5177C127.004 20.3658 129.627 22.9288 133.999 22.9288C138.954 22.9288 141.578 19.5115 141.578 19.5115L145.659 24.6377C145.659 24.6377 141.287 29.4797 133.417 29.4797C124.964 29.4797 118.259 22.929 118.259 14.9549C118.259 6.98073 124.963 0.429688 133.125 0.429688C141.286 0.429688 147.408 6.4102 147.408 14.3849C147.408 16.3782 147.116 17.5177 147.116 17.5177H126.421ZM126.421 12.1065H139.538C138.954 9.25835 136.623 6.97995 133.125 6.97995C129.627 6.97995 127.295 9.25835 126.421 12.1065Z" fill="#001E37"/>
<path d="M169.477 8.40831C169.477 8.40831 168.603 8.12373 166.854 8.12373C162.773 8.12373 160.15 10.6867 160.15 15.5283V28.9142H152.28V1.00333H160.15V4.42124C160.15 4.42124 163.065 0.71875 168.312 0.71875H169.477V8.40831H169.477Z" fill="#001E37"/>
<path d="M188.131 26.0616C188.131 26.0616 185.216 29.4795 180.261 29.4795C174.431 29.4795 170.642 25.777 170.642 21.5047C170.642 16.9479 173.848 13.7582 179.095 12.8467L188.131 11.252C188.131 8.97358 186.382 7.26433 183.175 7.26433C178.803 7.26433 176.763 10.1125 176.763 10.1125L172.39 5.84084C172.39 5.84084 176.18 0.429688 183.759 0.429688C191.045 0.429688 196.001 5.27109 196.001 11.5368V28.9097H188.131V26.0616ZM188.131 16.9479V16.0936L181.718 17.2331C179.678 17.5747 178.512 18.6572 178.512 20.3658C178.512 22.0745 179.678 23.214 182.301 23.214C185.799 23.214 188.131 20.9352 188.131 16.9479Z" fill="#001E37"/>
<path d="M43.8668 29.2946C41.8281 29.6159 39.9158 28.224 39.5947 26.1903C39.2737 24.1514 40.6603 22.2394 42.699 21.9181C46.5428 21.3099 49.1655 17.6949 48.5573 13.846C47.9491 10.002 44.3339 7.3695 40.4901 7.98298C42.5239 7.65701 43.9156 5.74438 43.5894 3.71074C43.2683 1.67182 41.3561 0.280534 39.3223 0.60181C47.2388 -0.648748 54.6832 4.75186 55.9387 12.6782C57.1941 20.6045 51.7834 28.0393 43.8668 29.2948V29.2946Z" fill="#001E37"/>
<path d="M43.8671 29.3014C35.941 30.5568 28.5012 25.1508 27.2458 17.2293C25.9954 9.30359 31.3962 1.86406 39.3226 0.608623C41.3564 0.287347 43.2686 1.67863 43.5897 3.71755C43.9157 5.7512 42.5242 7.66383 40.4904 7.98979C36.6417 8.59799 34.0141 12.213 34.6272 16.0619C35.2354 19.9108 38.8457 22.5331 42.6993 21.9249C40.6606 22.2462 39.2738 24.1582 39.595 26.1972C39.9161 28.2308 41.8284 29.6227 43.8671 29.3014Z" fill="#00C7B3"/>
</g>
<defs>
<clipPath id="clip0_4759_3856">
<rect width="195.186" height="29.2539" fill="white" transform="translate(0.813965 0.421875)"/>
</clipPath>
</defs>
</svg>
