<?xml version="1.0" encoding="utf-8"?>
<!-- Generator: Adobe Illustrator 16.0.0, SVG Export Plug-In . SVG Version: 6.00 Build 0)  -->
<!DOCTYPE svg PUBLIC "-//W3C//DTD SVG 1.1//EN" "http://www.w3.org/Graphics/SVG/1.1/DTD/svg11.dtd">
<svg version="1.1" id="Layer_1" xmlns="http://www.w3.org/2000/svg" xmlns:xlink="http://www.w3.org/1999/xlink" x="0px" y="0px"
	 width="329px" height="314px" viewBox="0 0 329 314" enable-background="new 0 0 329 314" xml:space="preserve">
<g>
	<rect fill="#FFFFFF" width="219.189" height="210.055"/>
	<rect x="207.544" fill="#FFFFFF" width="121.455" height="105.028"/>
	<rect y="200.544" fill="#FFFFFF" width="108.765" height="113.456"/>
</g>
<g>
	<path d="M54.934,135.449l-2.664-6.054l-2.696,6.054H54.934 M52.254,115.678l13.33,29.193h-6.357l-1.973-4.347h-10l-1.976,4.347
		h-6.335L52.254,115.678z"/>
	<path d="M84.832,133.166v-17.493h5.907v17.511c0,3.23-1.155,5.986-3.46,8.269c-2.32,2.277-5.096,3.412-8.331,3.412
		c-3.273,0-6.064-1.134-8.372-3.412c-2.304-2.283-3.46-5.039-3.46-8.269v-17.511h5.907v17.493c0,3.154,2.694,5.816,5.903,5.816
		C82.104,138.981,84.832,136.301,84.832,133.166"/>
	<polyline points="101.96,115.673 106.941,124.346 111.945,115.673 118.681,115.673 110.314,130.252 118.681,144.869 
		111.945,144.869 106.941,136.16 101.96,144.869 95.224,144.869 103.557,130.252 95.224,115.673 101.96,115.673 	"/>
	<rect x="123.805" y="115.673" width="5.872" height="29.198"/>
	<polyline points="141.243,115.673 141.243,139.038 152.981,139.038 152.981,144.869 135.375,144.869 135.375,115.673 
		141.243,115.673 	"/>
	<path d="M164.079,124.081c-1.715,1.738-2.564,3.799-2.564,6.188c0,2.416,0.849,4.476,2.564,6.19
		c1.701,1.701,3.761,2.551,6.188,2.551c2.391,0,4.449-0.85,6.172-2.551c1.724-1.701,2.587-3.762,2.587-6.19
		c0-2.399-0.863-4.462-2.587-6.188c-1.713-1.711-3.77-2.564-6.172-2.564C167.831,121.517,165.767,122.37,164.079,124.081
		 M180.576,119.981c2.867,2.867,4.295,6.305,4.295,10.324c0,4.03-1.428,7.467-4.295,10.311c-2.857,2.827-6.29,4.241-10.309,4.241
		c-4.029-0.013-7.464-1.426-10.307-4.241c-2.853-2.858-4.28-6.29-4.28-10.311c0-4.007,1.427-7.447,4.28-10.324
		c2.865-2.864,6.301-4.298,10.307-4.298S177.708,117.117,180.576,119.981z"/>
	<polyline points="43.328,166.611 42.174,166.611 42.174,157.711 39.032,157.711 39.032,156.688 46.47,156.688 46.47,157.711 
		43.328,157.711 43.328,166.611 	"/>
	<path d="M52.884,166.611v-4.813c0-0.605-0.138-1.059-0.414-1.356c-0.276-0.3-0.708-0.448-1.296-0.448
		c-0.783,0-1.354,0.213-1.715,0.639c-0.359,0.425-0.539,1.121-0.539,2.091v3.889h-1.127V156.05h1.127v3.198
		c0,0.383-0.019,0.703-0.054,0.956h0.067c0.222-0.358,0.538-0.64,0.947-0.845c0.41-0.207,0.876-0.31,1.401-0.31
		c0.91,0,1.592,0.217,2.046,0.648c0.456,0.431,0.682,1.119,0.682,2.06v4.854H52.884"/>
	<path d="M59.162,159.979c-0.597,0-1.074,0.195-1.429,0.585c-0.355,0.388-0.564,0.928-0.627,1.615h3.889
		c0-0.712-0.158-1.256-0.475-1.633C60.203,160.168,59.75,159.979,59.162,159.979 M59.468,166.747c-1.1,0-1.967-0.336-2.603-1.006
		c-0.636-0.669-0.953-1.599-0.953-2.788c0-1.2,0.295-2.152,0.885-2.858c0.591-0.704,1.384-1.059,2.379-1.059
		c0.933,0,1.67,0.307,2.213,0.921c0.543,0.612,0.814,1.422,0.814,2.425v0.714h-5.124c0.023,0.873,0.243,1.535,0.662,1.989
		c0.418,0.451,1.007,0.679,1.768,0.679c0.801,0,1.593-0.168,2.375-0.504v1.005c-0.398,0.172-0.775,0.296-1.13,0.37
		C60.398,166.71,59.97,166.747,59.468,166.747z"/>
	<path d="M72.546,166.611v-4.813c0-0.605-0.138-1.059-0.415-1.356c-0.276-0.3-0.708-0.448-1.296-0.448
		c-0.779,0-1.349,0.211-1.711,0.631c-0.362,0.422-0.543,1.116-0.543,2.085v3.902h-1.127v-7.438h0.917l0.183,1.018h0.054
		c0.231-0.366,0.555-0.65,0.971-0.853c0.417-0.2,0.88-0.302,1.392-0.302c0.896,0,1.569,0.217,2.022,0.649
		c0.452,0.432,0.678,1.122,0.678,2.072v4.854H72.546"/>
	<path d="M78.824,159.979c-0.598,0-1.073,0.195-1.429,0.585c-0.355,0.388-0.563,0.928-0.627,1.615h3.889
		c0-0.712-0.159-1.256-0.476-1.633C79.864,160.168,79.412,159.979,78.824,159.979 M79.13,166.747c-1.1,0-1.968-0.336-2.603-1.006
		c-0.636-0.669-0.954-1.599-0.954-2.788c0-1.2,0.295-2.152,0.885-2.858c0.59-0.704,1.384-1.059,2.379-1.059
		c0.932,0,1.669,0.307,2.213,0.921c0.543,0.612,0.814,1.422,0.814,2.425v0.714H76.74c0.023,0.873,0.243,1.535,0.662,1.989
		c0.419,0.451,1.009,0.679,1.768,0.679c0.801,0,1.593-0.168,2.376-0.504v1.005c-0.398,0.172-0.775,0.296-1.13,0.37
		C80.06,166.71,79.632,166.747,79.13,166.747z"/>
	<polyline points="85.577,162.802 82.991,159.173 84.274,159.173 86.235,162.023 88.189,159.173 89.458,159.173 86.874,162.802 
		89.595,166.611 88.319,166.611 86.235,163.597 84.131,166.611 82.855,166.611 85.577,162.802 	"/>
	<path d="M93.47,165.817c0.199,0,0.392-0.016,0.577-0.045s0.332-0.06,0.441-0.091v0.861c-0.122,0.059-0.303,0.107-0.54,0.147
		c-0.238,0.037-0.452,0.057-0.642,0.057c-1.438,0-2.158-0.759-2.158-2.274v-4.424h-1.065v-0.543l1.065-0.47l0.476-1.588h0.652v1.726
		h2.158v0.875h-2.158v4.377c0,0.447,0.106,0.792,0.318,1.03C92.808,165.697,93.099,165.817,93.47,165.817"/>
	<rect x="99.585" y="156.05" width="1.127" height="10.561"/>
	<path d="M105.938,159.979c-0.597,0-1.073,0.195-1.429,0.585c-0.355,0.388-0.564,0.928-0.627,1.615h3.888
		c0-0.712-0.158-1.256-0.475-1.633C106.978,160.168,106.526,159.979,105.938,159.979 M106.243,166.747
		c-1.1,0-1.967-0.336-2.603-1.006c-0.636-0.669-0.954-1.599-0.954-2.788c0-1.2,0.295-2.152,0.886-2.858
		c0.591-0.704,1.383-1.059,2.379-1.059c0.932,0,1.669,0.307,2.212,0.921c0.542,0.612,0.814,1.422,0.814,2.425v0.714h-5.124
		c0.022,0.873,0.243,1.535,0.662,1.989c0.418,0.451,1.007,0.679,1.768,0.679c0.801,0,1.593-0.168,2.376-0.504v1.005
		c-0.398,0.172-0.775,0.296-1.13,0.37C107.174,166.71,106.745,166.747,106.243,166.747z"/>
	<path d="M112.528,166.611l-2.824-7.438h1.208l1.602,4.41c0.362,1.032,0.575,1.703,0.638,2.009h0.055
		c0.049-0.238,0.207-0.734,0.472-1.489c0.265-0.754,0.859-2.396,1.782-4.93h1.208l-2.823,7.438H112.528"/>
	<path d="M120.699,159.979c-0.596,0-1.073,0.195-1.427,0.585c-0.355,0.388-0.565,0.928-0.628,1.615h3.889
		c0-0.712-0.16-1.256-0.476-1.633C121.741,160.168,121.287,159.979,120.699,159.979 M121.005,166.747
		c-1.1,0-1.966-0.336-2.602-1.006c-0.637-0.669-0.955-1.599-0.955-2.788c0-1.2,0.296-2.152,0.886-2.858
		c0.592-0.704,1.384-1.059,2.379-1.059c0.932,0,1.67,0.307,2.212,0.921c0.543,0.612,0.815,1.422,0.815,2.425v0.714h-5.125
		c0.023,0.873,0.243,1.535,0.662,1.989c0.419,0.451,1.008,0.679,1.769,0.679c0.801,0,1.592-0.168,2.375-0.504v1.005
		c-0.398,0.172-0.775,0.296-1.13,0.37C121.935,166.71,121.508,166.747,121.005,166.747z"/>
	<rect x="125.661" y="156.05" width="1.127" height="10.561"/>
	<path d="M136.085,159.993c-0.769,0-1.323,0.222-1.662,0.662c-0.339,0.442-0.51,1.185-0.51,2.23c0,1.044,0.174,1.791,0.522,2.242
		c0.349,0.449,0.907,0.675,1.677,0.675c0.692,0,1.208-0.251,1.548-0.757c0.339-0.504,0.508-1.229,0.508-2.175
		c0-0.968-0.169-1.69-0.508-2.165C137.32,160.232,136.795,159.993,136.085,159.993 M136.248,159.049
		c0.978,0,1.737,0.334,2.277,1.002c0.542,0.667,0.812,1.611,0.812,2.834c0,1.221-0.272,2.17-0.818,2.846
		c-0.545,0.677-1.302,1.016-2.271,1.016c-0.484,0-0.926-0.09-1.326-0.269c-0.401-0.179-0.736-0.454-1.008-0.824h-0.081l-0.238,0.957
		h-0.808V156.05h1.126v2.565c0,0.575-0.018,1.092-0.054,1.548h0.054C134.439,159.422,135.217,159.049,136.248,159.049z"/>
	<path d="M144.141,159.979c-0.597,0-1.073,0.195-1.429,0.585c-0.354,0.388-0.563,0.928-0.626,1.615h3.888
		c0-0.712-0.158-1.256-0.475-1.633C145.182,160.168,144.729,159.979,144.141,159.979 M144.447,166.747
		c-1.1,0-1.967-0.336-2.604-1.006c-0.635-0.669-0.953-1.599-0.953-2.788c0-1.2,0.295-2.152,0.885-2.858
		c0.592-0.704,1.384-1.059,2.38-1.059c0.931,0,1.669,0.307,2.212,0.921c0.542,0.612,0.814,1.422,0.814,2.425v0.714h-5.124
		c0.022,0.873,0.243,1.535,0.662,1.989c0.419,0.451,1.008,0.679,1.769,0.679c0.801,0,1.592-0.168,2.375-0.504v1.005
		c-0.398,0.172-0.775,0.296-1.13,0.37C145.377,166.71,144.949,166.747,144.447,166.747z"/>
	<path d="M152.076,166.747c-1.078,0-1.91-0.331-2.501-0.994c-0.59-0.662-0.885-1.601-0.885-2.813c0-1.245,0.3-2.205,0.899-2.885
		c0.6-0.679,1.455-1.019,2.562-1.019c0.358,0,0.716,0.039,1.072,0.116c0.358,0.077,0.638,0.168,0.843,0.272l-0.347,0.955
		c-0.249-0.099-0.52-0.182-0.815-0.247c-0.293-0.065-0.554-0.098-0.78-0.098c-1.51,0-2.267,0.963-2.267,2.89
		c0,0.915,0.186,1.616,0.554,2.104c0.369,0.489,0.915,0.734,1.639,0.734c0.619,0,1.256-0.133,1.908-0.401v0.998
		C153.457,166.617,152.831,166.747,152.076,166.747"/>
	<path d="M156.833,162.802c0.195-0.276,0.49-0.637,0.89-1.086l2.401-2.543h1.338l-3.014,3.168l3.224,4.27h-1.364l-2.626-3.516
		l-0.849,0.732v2.783h-1.113V156.05h1.113v5.6c0,0.248-0.019,0.634-0.054,1.152H156.833"/>
	<path d="M163.769,162.885c0,0.949,0.19,1.674,0.571,2.171c0.379,0.498,0.938,0.746,1.674,0.746c0.739,0,1.299-0.247,1.682-0.742
		s0.573-1.221,0.573-2.175c0-0.946-0.19-1.665-0.573-2.155c-0.383-0.491-0.947-0.737-1.694-0.737c-0.736,0-1.293,0.243-1.668,0.727
		C163.958,161.204,163.769,161.926,163.769,162.885 M169.436,162.885c0,1.212-0.305,2.158-0.916,2.839
		c-0.61,0.681-1.455,1.022-2.531,1.022c-0.665,0-1.256-0.156-1.771-0.469c-0.516-0.312-0.914-0.76-1.195-1.344
		c-0.28-0.584-0.42-1.268-0.42-2.049c0-1.213,0.302-2.157,0.909-2.834c0.606-0.677,1.447-1.016,2.524-1.016
		c1.04,0,1.868,0.347,2.481,1.039C169.129,160.767,169.436,161.703,169.436,162.885z"/>
	<path d="M176.502,166.611v-4.813c0-0.605-0.139-1.059-0.414-1.356c-0.276-0.3-0.709-0.448-1.298-0.448
		c-0.778,0-1.348,0.211-1.708,0.631c-0.363,0.422-0.545,1.116-0.545,2.085v3.902h-1.127v-7.438h0.917l0.183,1.018h0.056
		c0.23-0.366,0.554-0.65,0.969-0.853c0.418-0.2,0.882-0.302,1.393-0.302c0.895,0,1.57,0.217,2.023,0.649
		c0.451,0.432,0.679,1.122,0.679,2.072v4.854H176.502"/>
	<path d="M184.741,164.582c0,0.691-0.257,1.225-0.773,1.602c-0.516,0.376-1.239,0.563-2.173,0.563c-0.984,0-1.755-0.156-2.306-0.469
		v-1.045c0.355,0.182,0.74,0.324,1.148,0.429c0.411,0.103,0.806,0.155,1.186,0.155c0.588,0,1.04-0.095,1.357-0.282
		c0.316-0.187,0.476-0.475,0.476-0.859c0-0.288-0.126-0.537-0.377-0.743c-0.251-0.205-0.741-0.447-1.47-0.729
		c-0.692-0.257-1.184-0.481-1.477-0.676c-0.291-0.191-0.509-0.409-0.65-0.653c-0.143-0.244-0.215-0.537-0.215-0.876
		c0-0.607,0.247-1.085,0.74-1.436s1.17-0.526,2.028-0.526c0.801,0,1.585,0.163,2.35,0.49l-0.401,0.915
		c-0.745-0.308-1.423-0.462-2.028-0.462c-0.534,0-0.938,0.084-1.208,0.253c-0.271,0.166-0.408,0.396-0.408,0.69
		c0,0.2,0.052,0.37,0.153,0.51c0.102,0.141,0.267,0.273,0.491,0.4c0.228,0.126,0.661,0.31,1.304,0.549
		c0.882,0.322,1.479,0.645,1.79,0.972C184.586,163.679,184.741,164.088,184.741,164.582"/>
	<polyline points="141.092,101.081 126.499,101.081 141.092,86.492 141.092,101.081 	"/>
	<path fill="#F37021" d="M111.906,56.233l14.593,14.588V58.43l-14.593-14.589V56.233 M82.722,86.526l14.592,14.538V87.58
		L82.722,72.992V86.526z M98.417,57.318l14.594,14.591l12.376-0.015l-14.58-14.577L98.417,57.318z M126.499,42.737l-13.513,0.001
		l14.596,14.59l13.51-0.018L126.499,42.737z M83.813,71.9l14.596,14.592l12.394-0.016L96.222,71.9H83.813z M97.313,70.807
		l14.593,14.589V72.988L97.313,58.401V70.807z"/>
</g>
<g>
	<path fill="#010101" d="M180.756,116.513c-2.07,0-3.756-1.686-3.756-3.756s1.686-3.756,3.756-3.756
		c2.071,0,3.757,1.686,3.757,3.756S182.828,116.513,180.756,116.513z M180.756,109.47c-1.812,0-3.287,1.474-3.287,3.287
		s1.476,3.287,3.287,3.287c1.813,0,3.287-1.474,3.287-3.287S182.569,109.47,180.756,109.47L180.756,109.47z"/>
	<path fill="#010101" d="M181.696,114.635c-0.001-0.62-0.369-1.178-0.939-1.422l-0.469-0.202v1.623h-0.47v-3.521
		c0-0.13,0.104-0.235,0.235-0.235h1.055c0.583,0,1.057,0.474,1.057,1.056c0,0.52-0.376,0.953-0.871,1.041
		c0.539,0.371,0.871,0.986,0.871,1.658C182.167,114.634,181.696,114.635,181.696,114.635L181.696,114.635z M180.288,112.521h0.82
		c0.324,0,0.588-0.263,0.588-0.587c0-0.324-0.264-0.587-0.588-0.587h-0.82V112.521z"/>
</g>
</svg>
